<svg width="1360" height="1360" viewBox="0 0 1360 1360" fill="none" xmlns="http://www.w3.org/2000/svg">
<rect width="1360" height="1360" rx="400" fill="#1E3A8A"/>
<g clip-path="url(#clip0_183_555)">
<path d="M322.338 437.639C358.983 383.523 407.43 338.426 464.029 305.746C520.628 273.066 583.904 253.653 649.093 248.971C714.281 244.288 779.682 254.458 840.371 278.714C901.06 302.969 955.454 340.679 999.458 389.003C1002.72 392.577 1004.97 396.963 1005.96 401.703C1006.95 406.442 1006.64 411.361 1005.08 415.943C1003.51 420.525 1000.75 424.602 997.066 427.747C993.385 430.892 988.926 432.989 984.156 433.819C964.999 437.229 947.119 445.749 932.403 458.478C917.687 471.208 906.682 487.675 900.548 506.14C894.415 524.606 893.382 544.385 897.558 563.389C901.733 582.394 910.963 599.918 924.273 614.111C929.011 619.122 931.894 625.602 932.444 632.477C932.994 639.351 931.177 646.207 927.296 651.907C914.972 670.083 908.481 691.585 908.69 713.544C908.898 735.503 915.796 756.878 928.464 774.816C941.131 792.755 958.967 806.406 979.591 813.948C1000.22 821.491 1022.65 822.566 1043.9 817.032C1048.81 815.748 1053.99 815.875 1058.83 817.399C1063.68 818.923 1067.99 821.782 1071.29 825.648C1074.58 829.514 1076.71 834.23 1077.45 839.255C1078.18 844.28 1077.48 849.41 1075.43 854.056C1065.07 877.561 1052.45 900.321 1037.58 922.335C973.302 1017.18 873.982 1082.61 761.467 1104.23C648.951 1125.85 532.456 1101.88 437.609 1037.61C342.763 973.332 277.334 874.012 255.716 761.496C234.099 648.981 258.063 532.486 322.338 437.639ZM606.437 499.702C614.471 487.846 617.467 473.284 614.765 459.22C612.062 445.155 603.884 432.74 592.028 424.706C580.172 416.672 565.61 413.676 551.546 416.378C537.481 419.081 525.066 427.259 517.032 439.115C508.998 450.971 506.002 465.533 508.704 479.597C511.407 493.662 519.585 506.077 531.441 514.111C543.297 522.145 557.859 525.141 571.923 522.439C585.988 519.736 598.403 511.558 606.437 499.702ZM649.664 724.69C661.52 732.724 676.081 735.719 690.146 733.017C704.21 730.315 716.625 722.136 724.66 710.281C732.694 698.425 735.69 683.863 732.987 669.799C730.285 655.734 722.107 643.319 710.251 635.285C698.395 627.25 683.833 624.255 669.769 626.957C655.704 629.659 643.289 637.838 635.255 649.694C627.221 661.549 624.225 676.111 626.927 690.176C629.629 704.24 637.808 716.655 649.664 724.69ZM692.891 949.677C700.925 937.821 703.92 923.26 701.218 909.195C698.516 895.131 690.338 882.716 678.482 874.681C666.626 866.647 652.064 863.651 637.999 866.354C623.935 869.056 611.52 877.234 603.486 889.09C595.451 900.946 592.456 915.508 595.158 929.572C597.86 943.637 606.039 956.052 617.895 964.086C629.751 972.12 644.312 975.116 658.377 972.414C672.441 969.712 684.856 961.533 692.891 949.677ZM424.676 767.916C436.532 775.951 451.094 778.946 465.158 776.244C479.223 773.542 491.638 765.363 499.672 753.507C507.706 741.652 510.702 727.09 508 713.025C505.297 698.961 497.119 686.546 485.263 678.512C473.407 670.477 458.845 667.482 444.781 670.184C430.716 672.886 418.302 681.065 410.267 692.92C402.233 704.776 399.237 719.338 401.939 733.403C404.642 747.467 412.82 759.882 424.676 767.916Z" fill="url(#paint0_linear_183_555)"/>
</g>
<defs>
<linearGradient id="paint0_linear_183_555" x1="922.391" y1="322.241" x2="437.609" y2="1037.61" gradientUnits="userSpaceOnUse">
<stop stop-color="#F3EBDB"/>
<stop offset="1" stop-color="#7F7EC6"/>
</linearGradient>
<clipPath id="clip0_183_555">
<rect width="1080" height="1080" fill="white" transform="translate(140 140)"/>
</clipPath>
</defs>
</svg>
